<svg width="141" height="61" viewBox="0 0 141 61" fill="none" xmlns="http://www.w3.org/2000/svg">
<path d="M3.94236 46.155V15.285H11.7274L19.2424 38.55H19.3774L26.8924 15.285H34.6324V46.155H29.0974V22.17H28.9174L21.1774 46.155H16.6324L8.93736 22.17H8.80236V46.155H3.94236ZM41.8672 46.155V15.285H61.1272V19.65H47.4022V28.11H58.0672V32.43H47.4022V41.79H61.3972V46.155H41.8672ZM79.5283 46.155V15.285H98.7883V19.65H85.0633V28.11H95.7283V32.43H85.0633V41.79H99.0583V46.155H79.5283ZM105.503 46.155V15.285H111.083V46.155H105.503ZM118.508 46.155V15.285H137.768V19.65H124.043V28.11H134.708V32.43H124.043V41.79H138.038V46.155H118.508Z" fill="#F9B208"/>
<path d="M71.7342 23.8L72.4542 46.885H66.6042L67.2342 23.8H71.7342ZM72.1842 14.215V19.48H66.7842V14.215H72.1842Z" fill="#F5FB02"/>
</svg>
